<?xml version="1.0" encoding="UTF-8"?>
<svg width="1133" height="125.228" version="1.1" viewBox="0 0 1133 125.228" xmlns="http://www.w3.org/2000/svg">
    <path fill="#485561" d="m509 2.00592-24 81-27-81h-53l-32 108-21-108h-50l-76 99s-54 7-53-29c1-36 47-60 90-43l17-23s-24-6-43-6-66 4-92 37c-26 33-14 65 1 74s33 14 52 14h51l21-27h57l4 25h76l23-82 30 82h50l36-121zm-223 72 33-47 6 47zm590-51c-1-24-37-23-37-23h-76l-36 123h40l15-50h13s11 0 14 12 5 38 5 38h42c-5-53-8-54-11-58s-8-4-8-4c16-2 41-15 39-38zm-43 12c-4 17-29 14-29 14h-15l8-26h17c22 0 19 12 19 12zm-267-25c-10 5-27 20-25 40s38 24 39 24c1 1 21 4 19 14-1 9-10 13-28 13s-44-12-44-12l-8 28c8 3 47 13 80 4 28-7 43-21 43-44 1-17-17-25-39-29-10-2-22-7-17-15 3-6 10-9 20-9h66l-29 98h41l28-98h38l7-24h-141c-29 0-41 6-50 10zm417-8-21 69s-7 30-35 30c0 0-26 1-17-30l20-69h-40l-21 71s-3 10-3 18 1 34 55 34 73-27 78-42l17-56h31l-28 96h41l28-96h38l7-25zm-890 22c10 0 27 3 27 3l17-23a205 205 0 0 0-39-4c-29 0-42 6-52 10-10 4-28 20-26 40s40 25 42 25 18 3 17 13c-2 9-14 13-30 13a105 105 0 0 1-31-5l-18 23c8 4 50 10 77 3 29-8 46-24 46-46 0-19-24-25-42-29-10-2-20-5-15-13s16-10 27-10z"/>
</svg>
